<?xml version="1.0" encoding="UTF-8"?>
<svg xmlns="http://www.w3.org/2000/svg" xmlns:xlink="http://www.w3.org/1999/xlink" viewBox="0 0 40 40" width="40px" height="40px">
<g id="surface63524870">
<path style=" stroke:none;fill-rule:nonzero;fill:rgb(100%,100%,100%);fill-opacity:1;" d="M 7.199219 3.199219 C 5 3.199219 3.199219 5 3.199219 7.199219 L 3.199219 32.800781 C 3.199219 35 5 36.800781 7.199219 36.800781 L 32.800781 36.800781 C 35 36.800781 36.800781 35 36.800781 32.800781 L 36.800781 7.199219 C 36.800781 5 35 3.199219 32.800781 3.199219 Z M 7.199219 4.800781 L 32.800781 4.800781 C 34.136719 4.800781 35.199219 5.863281 35.199219 7.199219 L 35.199219 32.800781 C 35.199219 34.136719 34.136719 35.199219 32.800781 35.199219 L 7.199219 35.199219 C 5.863281 35.199219 4.800781 34.136719 4.800781 32.800781 L 4.800781 7.199219 C 4.800781 5.863281 5.863281 4.800781 7.199219 4.800781 Z M 11.199219 8.808594 C 10.324219 8.808594 9.535156 9.070312 8.953125 9.5625 C 8.367188 10.054688 8.007812 10.789062 8.007812 11.574219 C 8.007812 13.066406 9.304688 14.230469 10.953125 14.347656 C 10.953125 14.347656 10.957031 14.347656 10.957031 14.347656 C 11.035156 14.375 11.117188 14.390625 11.199219 14.390625 C 13.019531 14.390625 14.390625 13.117188 14.390625 11.574219 C 14.390625 11.558594 14.390625 11.546875 14.390625 11.53125 C 14.308594 10.011719 12.953125 8.808594 11.199219 8.808594 Z M 11.199219 10.390625 C 12.3125 10.390625 12.753906 10.886719 12.800781 11.59375 C 12.792969 12.277344 12.367188 12.808594 11.199219 12.808594 C 10.089844 12.808594 9.589844 12.242188 9.589844 11.574219 C 9.589844 11.238281 9.710938 10.988281 9.96875 10.773438 C 10.226562 10.554688 10.636719 10.390625 11.199219 10.390625 Z M 8.800781 15.199219 C 8.359375 15.199219 8 15.558594 8 16 L 8 31.199219 C 8 31.640625 8.359375 32 8.800781 32 L 13.601562 32 C 14.042969 32 14.398438 31.640625 14.398438 31.199219 L 14.398438 16 C 14.398438 15.558594 14.042969 15.199219 13.601562 15.199219 Z M 16 15.199219 C 15.558594 15.199219 15.199219 15.558594 15.199219 16 L 15.199219 31.199219 C 15.199219 31.640625 15.558594 32 16 32 L 20.800781 32 C 21.242188 32 21.601562 31.640625 21.601562 31.199219 L 21.601562 23.199219 C 21.601562 22.535156 21.78125 21.875 22.101562 21.445312 C 22.417969 21.011719 22.820312 20.753906 23.585938 20.765625 C 24.375 20.777344 24.792969 21.050781 25.109375 21.472656 C 25.421875 21.898438 25.601562 22.535156 25.601562 23.199219 L 25.601562 31.199219 C 25.601562 31.640625 25.957031 32 26.398438 32 L 31.199219 32 C 31.640625 32 32 31.640625 32 31.199219 L 32 22.609375 C 32 20.238281 31.296875 18.363281 30.09375 17.09375 C 28.890625 15.824219 27.21875 15.199219 25.449219 15.199219 C 23.769531 15.199219 22.488281 15.765625 21.601562 16.339844 L 21.601562 16 C 21.601562 15.558594 21.242188 15.199219 20.800781 15.199219 Z M 9.601562 16.800781 L 12.800781 16.800781 L 12.800781 30.398438 L 9.601562 30.398438 Z M 16.800781 16.800781 L 20 16.800781 L 20 18.046875 C 20 18.390625 20.21875 18.699219 20.546875 18.808594 C 20.871094 18.917969 21.230469 18.804688 21.4375 18.53125 C 21.4375 18.53125 22.695312 16.800781 25.449219 16.800781 C 26.851562 16.800781 28.054688 17.265625 28.933594 18.195312 C 29.8125 19.121094 30.398438 20.550781 30.398438 22.609375 L 30.398438 30.398438 L 27.199219 30.398438 L 27.199219 23.199219 C 27.199219 22.265625 26.976562 21.300781 26.390625 20.515625 C 25.808594 19.734375 24.824219 19.1875 23.613281 19.164062 C 22.394531 19.144531 21.398438 19.703125 20.8125 20.496094 C 20.226562 21.289062 20 22.265625 20 23.199219 L 20 30.398438 L 16.800781 30.398438 Z M 16.800781 16.800781 "/>
</g>
</svg>
