<?xml version="1.0" encoding="UTF-8"?>
<svg xmlns="http://www.w3.org/2000/svg" xmlns:xlink="http://www.w3.org/1999/xlink" viewBox="0 0 40 40" width="40px" height="40px">
<g id="surface63576574">
<path style=" stroke:none;fill-rule:nonzero;fill:rgb(100%,100%,100%);fill-opacity:1;" d="M 20 1.601562 C 9.847656 1.601562 1.601562 9.847656 1.601562 20 C 1.601562 30.152344 9.847656 38.398438 20 38.398438 C 30.152344 38.398438 38.398438 30.152344 38.398438 20 C 38.398438 9.847656 30.152344 1.601562 20 1.601562 Z M 20 3.199219 C 29.285156 3.199219 36.800781 10.714844 36.800781 20 C 36.800781 20.058594 36.796875 20.113281 36.796875 20.171875 C 36.285156 20.125 35.691406 20.078125 34.941406 20.050781 C 33.878906 20.015625 32.539062 20.023438 31.019531 20.101562 C 31.074219 19.707031 31.113281 19.308594 31.117188 18.902344 C 31.191406 17.402344 30.691406 16.003906 29.871094 14.765625 C 30.070312 14.082031 30.300781 13.210938 30.359375 12.226562 C 30.425781 11.101562 30.328125 9.855469 29.425781 9.015625 L 29.195312 8.800781 L 28.878906 8.800781 C 26.734375 8.800781 25.265625 9.699219 24.367188 10.410156 C 23.070312 9.910156 21.609375 9.601562 20 9.601562 C 18.382812 9.601562 16.910156 9.914062 15.558594 10.414062 C 14.660156 9.703125 13.1875 8.800781 11.039062 8.800781 L 10.726562 8.800781 L 10.496094 9.015625 C 9.617188 9.828125 9.535156 11.042969 9.589844 12.160156 C 9.640625 13.144531 9.855469 14.042969 10.050781 14.757812 C 9.21875 16.019531 8.71875 17.457031 8.71875 18.878906 C 8.71875 19.289062 8.757812 19.6875 8.8125 20.082031 C 7.371094 20.015625 6.082031 20 5.058594 20.039062 C 4.308594 20.0625 3.714844 20.109375 3.203125 20.15625 C 3.203125 20.105469 3.199219 20.050781 3.199219 20 C 3.199219 10.714844 10.714844 3.199219 20 3.199219 Z M 11.515625 10.503906 C 13.132812 10.65625 14.34375 11.378906 14.90625 11.878906 L 15.28125 12.210938 L 15.746094 12.019531 C 17.011719 11.5 18.421875 11.199219 20 11.199219 C 21.578125 11.199219 22.988281 11.5 24.160156 12.011719 L 24.628906 12.21875 L 25.011719 11.878906 C 25.574219 11.378906 26.789062 10.65625 28.40625 10.503906 C 28.621094 10.859375 28.804688 11.367188 28.761719 12.132812 C 28.707031 13.050781 28.460938 14.046875 28.277344 14.640625 L 28.15625 15.027344 L 28.394531 15.351562 C 29.1875 16.433594 29.589844 17.601562 29.523438 18.835938 L 29.519531 18.859375 L 29.519531 18.878906 C 29.519531 20.875 28.800781 22.472656 27.269531 23.65625 C 25.738281 24.839844 23.320312 25.601562 19.921875 25.601562 C 16.519531 25.601562 14.101562 24.839844 12.570312 23.65625 C 11.039062 22.472656 10.320312 20.875 10.320312 18.878906 C 10.320312 17.707031 10.742188 16.417969 11.523438 15.351562 L 11.757812 15.035156 L 11.648438 14.65625 C 11.460938 14.023438 11.234375 13.003906 11.1875 12.082031 C 11.152344 11.3125 11.332031 10.828125 11.515625 10.503906 Z M 7.109375 20.816406 C 7.671875 20.824219 8.320312 20.855469 8.96875 20.886719 C 9.03125 21.136719 9.101562 21.382812 9.1875 21.621094 C 6.542969 21.675781 4.5625 21.945312 3.34375 22.171875 C 3.292969 21.773438 3.25 21.367188 3.226562 20.960938 C 4.128906 20.875 5.402344 20.796875 7.109375 20.816406 Z M 32.890625 20.828125 C 34.597656 20.808594 35.867188 20.886719 36.769531 20.972656 C 36.746094 21.375 36.707031 21.773438 36.65625 22.167969 C 35.394531 21.933594 33.359375 21.667969 30.644531 21.625 C 30.730469 21.390625 30.800781 21.152344 30.859375 20.90625 C 31.578125 20.867188 32.277344 20.835938 32.890625 20.828125 Z M 9.53125 22.414062 C 10.007812 23.371094 10.6875 24.226562 11.589844 24.921875 C 12.824219 25.875 14.425781 26.542969 16.382812 26.898438 C 16.125 27.160156 15.894531 27.449219 15.6875 27.753906 L 15.636719 27.710938 C 15.640625 27.707031 15.238281 27.910156 14.640625 27.960938 C 14.039062 28.015625 13.296875 28 12.640625 28 C 11.660156 28 11.230469 27.535156 10.539062 26.695312 C 10.15625 26.179688 9.691406 25.761719 9.238281 25.445312 C 8.777344 25.121094 8.382812 24.890625 7.890625 24.8125 L 7.828125 24.800781 L 7.757812 24.800781 C 7.386719 24.800781 7.023438 24.828125 6.6875 25.210938 C 6.519531 25.40625 6.402344 25.761719 6.476562 26.0625 C 6.554688 26.367188 6.746094 26.550781 6.914062 26.664062 C 8.007812 27.394531 8.203125 28.835938 8.886719 30.121094 C 9.527344 31.394531 10.910156 32 12.320312 32 L 14.398438 32 L 14.398438 35.84375 C 8.773438 33.855469 4.53125 28.964844 3.464844 22.960938 C 4.691406 22.730469 6.742188 22.453125 9.53125 22.414062 Z M 30.304688 22.421875 C 33.15625 22.445312 35.265625 22.722656 36.535156 22.957031 C 35.472656 28.960938 31.226562 33.855469 25.601562 35.84375 L 25.601562 31.679688 C 25.601562 30.410156 25.183594 29.015625 24.460938 27.847656 C 24.238281 27.496094 23.980469 27.160156 23.691406 26.859375 C 25.542969 26.492188 27.066406 25.839844 28.25 24.921875 C 29.148438 24.226562 29.828125 23.375 30.304688 22.421875 Z M 18.960938 27.28125 L 21.199219 27.28125 C 21.851562 27.28125 22.542969 27.796875 23.101562 28.691406 C 23.65625 29.585938 24 30.789062 24 31.679688 L 24 36.320312 C 22.71875 36.632812 21.378906 36.800781 20 36.800781 C 18.621094 36.800781 17.28125 36.632812 16 36.320312 L 16 31.679688 C 16 30.808594 16.375 29.609375 16.96875 28.710938 C 17.558594 27.8125 18.308594 27.28125 18.960938 27.28125 Z M 9.847656 28.226562 C 10.539062 28.945312 11.378906 29.601562 12.640625 29.601562 C 13.265625 29.601562 14.042969 29.621094 14.78125 29.554688 C 14.785156 29.554688 14.785156 29.554688 14.789062 29.554688 C 14.691406 29.835938 14.617188 30.117188 14.558594 30.398438 L 12.320312 30.398438 C 11.332031 30.398438 10.636719 30.042969 10.316406 29.402344 L 10.308594 29.390625 L 10.304688 29.382812 C 10.171875 29.136719 10 28.648438 9.847656 28.226562 Z M 9.847656 28.226562 "/>
</g>
</svg>
